<svg xmlns="http://www.w3.org/2000/svg" width="103" height="98" viewBox="0 0 103 98" fill="none"><path d="M11.2117 22V0.746956H17.7599C19.109 0.746956 20.2643 1.02369 21.226 1.57715C22.1945 2.13062 22.9382 2.88817 23.4571 3.84982C23.976 4.81146 24.2354 5.90801 24.2354 7.13947C24.2354 8.3571 23.976 9.44673 23.4571 10.4084C22.9382 11.37 22.1945 12.131 21.226 12.6914C20.2643 13.2449 19.1124 13.5216 17.7703 13.5216H12.1249V12.3178H17.7391C18.8322 12.3178 19.7662 12.0964 20.5411 11.6537C21.3159 11.204 21.9109 10.5917 22.326 9.81686C22.7411 9.03509 22.9486 8.14263 22.9486 7.13947C22.9486 6.1294 22.7411 5.23348 22.326 4.45171C21.9109 3.66994 21.3124 3.05767 20.5307 2.6149C19.7558 2.17213 18.8219 1.95074 17.7288 1.95074H12.5089V22H11.2117ZM26.2305 22H24.8607L32.5296 0.746956H34.024L41.6929 22H40.3231L33.3287 2.41773H33.2249L26.2305 22ZM28.1711 13.999H38.3825V15.2028H28.1711V13.999ZM57.1138 6.06022C57.0031 4.73882 56.4635 3.66994 55.4949 2.85358C54.5333 2.03722 53.288 1.62904 51.7591 1.62904C50.7282 1.62904 49.8116 1.81929 49.009 2.1998C48.2065 2.58031 47.5769 3.09918 47.1203 3.75642C46.6637 4.41366 46.4354 5.16776 46.4354 6.01871C46.4354 6.56525 46.5392 7.05991 46.7467 7.50268C46.9612 7.93854 47.2622 8.32942 47.6496 8.67534C48.037 9.01433 48.4971 9.31182 49.0298 9.5678C49.5625 9.82378 50.1505 10.0486 50.794 10.2423L53.1185 10.9272C53.9141 11.1694 54.6474 11.4496 55.3185 11.7678C55.9965 12.0861 56.5846 12.4666 57.0827 12.9093C57.5877 13.3452 57.9786 13.8572 58.2553 14.4452C58.539 15.0333 58.6808 15.7113 58.6808 16.4792C58.6808 17.6 58.3903 18.6031 57.8091 19.4887C57.2349 20.3742 56.4151 21.0729 55.3497 21.5849C54.2912 22.0899 53.0424 22.3425 51.6034 22.3425C50.2336 22.3425 49.0402 22.1107 48.0232 21.6472C47.0131 21.1836 46.214 20.5402 45.626 19.717C45.0379 18.8868 44.7058 17.932 44.6297 16.8528H45.9581C46.0272 17.7314 46.3074 18.4924 46.7986 19.1358C47.2967 19.7723 47.9574 20.2635 48.7807 20.6094C49.604 20.9553 50.5449 21.1283 51.6034 21.1283C52.7449 21.1283 53.7515 20.9346 54.6232 20.5472C55.4949 20.1528 56.1764 19.6063 56.6676 18.9075C57.1588 18.2088 57.4044 17.3959 57.4044 16.4688C57.4044 15.7216 57.228 15.0817 56.8751 14.549C56.5223 14.0163 56 13.5562 55.3081 13.1688C54.6232 12.7814 53.7723 12.4354 52.7553 12.131L50.2751 11.3839C48.6147 10.8788 47.3452 10.1904 46.4665 9.31874C45.5948 8.44703 45.159 7.36086 45.159 6.06022C45.159 4.96712 45.4496 3.99856 46.0307 3.15453C46.6118 2.30358 47.4005 1.63596 48.3968 1.15168C49.3999 0.667396 50.5311 0.425255 51.7902 0.425255C53.0562 0.425255 54.1735 0.670855 55.1421 1.16205C56.1107 1.64634 56.8786 2.31395 57.4459 3.16491C58.0132 4.00894 58.328 4.97404 58.3903 6.06022H57.1138ZM75.264 6.06022C75.1533 4.73882 74.6137 3.66994 73.6451 2.85358C72.6835 2.03722 71.4382 1.62904 69.9092 1.62904C68.8784 1.62904 67.9617 1.81929 67.1592 2.1998C66.3567 2.58031 65.7271 3.09918 65.2705 3.75642C64.8139 4.41366 64.5856 5.16776 64.5856 6.01871C64.5856 6.56525 64.6894 7.05991 64.8969 7.50268C65.1114 7.93854 65.4123 8.32942 65.7998 8.67534C66.1872 9.01433 66.6473 9.31182 67.18 9.5678C67.7127 9.82378 68.3007 10.0486 68.9441 10.2423L71.2687 10.9272C72.0643 11.1694 72.7976 11.4496 73.4687 11.7678C74.1467 12.0861 74.7348 12.4666 75.2329 12.9093C75.7379 13.3452 76.1288 13.8572 76.4055 14.4452C76.6892 15.0333 76.831 15.7113 76.831 16.4792C76.831 17.6 76.5404 18.6031 75.9593 19.4887C75.3851 20.3742 74.5653 21.0729 73.4998 21.5849C72.4413 22.0899 71.1926 22.3425 69.7536 22.3425C68.3837 22.3425 67.1903 22.1107 66.1733 21.6472C65.1633 21.1836 64.3642 20.5402 63.7762 19.717C63.1881 18.8868 62.856 17.932 62.7799 16.8528H64.1082C64.1774 17.7314 64.4576 18.4924 64.9488 19.1358C65.4469 19.7723 66.1076 20.2635 66.9309 20.6094C67.7542 20.9553 68.6951 21.1283 69.7536 21.1283C70.8951 21.1283 71.9017 20.9346 72.7734 20.5472C73.6451 20.1528 74.3266 19.6063 74.8178 18.9075C75.309 18.2088 75.5546 17.3959 75.5546 16.4688C75.5546 15.7216 75.3782 15.0817 75.0253 14.549C74.6725 14.0163 74.1502 13.5562 73.4583 13.1688C72.7734 12.7814 71.9225 12.4354 70.9055 12.131L68.4253 11.3839C66.7649 10.8788 65.4954 10.1904 64.6167 9.31874C63.745 8.44703 63.3092 7.36086 63.3092 6.06022C63.3092 4.96712 63.5997 3.99856 64.1809 3.15453C64.762 2.30358 65.5507 1.63596 66.5469 1.15168C67.5501 0.667396 68.6812 0.425255 69.9404 0.425255C71.2064 0.425255 72.3237 0.670855 73.2923 1.16205C74.2609 1.64634 75.0288 2.31395 75.5961 3.16491C76.1634 4.00894 76.4782 4.97404 76.5404 6.06022H75.264ZM98.8624 11.3735C98.8624 13.5666 98.4819 15.483 97.7208 17.1226C96.9598 18.7553 95.9013 20.0248 94.5453 20.9311C93.1963 21.8374 91.6396 22.2906 89.8755 22.2906C88.1044 22.2906 86.5409 21.8374 85.1849 20.9311C83.8358 20.0179 82.7808 18.7449 82.0197 17.1122C81.2587 15.4726 80.8782 13.5597 80.8782 11.3735C80.8782 9.18037 81.2587 7.26746 82.0197 5.63474C82.7877 4.00202 83.8462 2.73251 85.1952 1.82621C86.5443 0.912995 88.1044 0.456387 89.8755 0.456387C91.6396 0.456387 93.1963 0.909536 94.5453 1.81583C95.9013 2.72213 96.9598 3.9951 97.7208 5.63474C98.4819 7.26746 98.8624 9.18037 98.8624 11.3735ZM97.5963 11.3735C97.5963 9.40176 97.2642 7.69294 96.6001 6.24701C95.9428 4.80109 95.0331 3.68378 93.8708 2.89509C92.7085 2.09948 91.3767 1.70168 89.8755 1.70168C88.3742 1.70168 87.0424 2.09603 85.8802 2.88471C84.7179 3.66648 83.8047 4.78379 83.1405 6.23663C82.4833 7.68256 82.1546 9.39484 82.1546 11.3735C82.1546 13.3314 82.4798 15.0367 83.1301 16.4896C83.7874 17.9355 84.6971 19.0563 85.8594 19.8519C87.0217 20.6475 88.3604 21.0453 89.8755 21.0453C91.3767 21.0453 92.7085 20.6509 93.8708 19.8622C95.0331 19.0666 95.9428 17.9459 96.6001 16.4999C97.2642 15.054 97.5963 13.3452 97.5963 11.3735ZM29.8778 97.6075C23.7335 97.5837 18.4464 96.0714 14.0168 93.0707C9.61092 90.07 6.21722 85.7236 3.83568 80.0318C1.47796 74.3399 0.311002 67.4929 0.334818 59.491C0.334818 51.5128 1.51368 44.7135 3.87141 39.0931C6.25295 33.4726 9.64664 29.1978 14.0525 26.2685C18.4822 23.3154 23.7573 21.8388 29.8778 21.8388C35.9984 21.8388 41.2616 23.3154 45.6675 26.2685C50.0971 29.2216 53.5027 33.5084 55.8843 39.1288C58.2658 44.7254 59.4447 51.5128 59.4209 59.491C59.4209 67.5168 58.2301 74.3756 55.8485 80.0675C53.4908 85.7594 50.109 90.1057 45.7032 93.1064C41.2973 96.1072 36.0222 97.6075 29.8778 97.6075ZM29.8778 84.7829C34.0694 84.7829 37.4154 82.6753 39.916 78.4599C42.4167 74.2446 43.6551 67.9216 43.6312 59.491C43.6312 53.942 43.0597 49.3218 41.9165 45.6304C40.7972 41.939 39.2016 39.1645 37.1296 37.3069C35.0815 35.4493 32.6642 34.5205 29.8778 34.5205C25.7101 34.5205 22.376 36.6044 19.8754 40.7721C17.3747 44.9398 16.1125 51.1794 16.0887 59.491C16.0887 65.1114 16.6484 69.803 17.7677 73.5659C18.9108 77.3049 20.5184 80.1151 22.5903 81.9965C24.6623 83.8541 27.0914 84.7829 29.8778 84.7829ZM102.28 22.839V96H86.8116V37.5212H86.3829L69.6287 48.0238V34.3062L87.7404 22.839H102.28Z" fill="#D9D9D9"></path></svg>