<svg xmlns="http://www.w3.org/2000/svg" width="123" height="98" viewBox="0 0 123 98" fill="none"><path d="M18.2117 22V0.746956H24.7599C26.109 0.746956 27.2643 1.02369 28.226 1.57715C29.1945 2.13062 29.9382 2.88817 30.4571 3.84982C30.976 4.81146 31.2354 5.90801 31.2354 7.13947C31.2354 8.3571 30.976 9.44673 30.4571 10.4084C29.9382 11.37 29.1945 12.131 28.226 12.6914C27.2643 13.2449 26.1124 13.5216 24.7703 13.5216H19.1249V12.3178H24.7391C25.8322 12.3178 26.7662 12.0964 27.5411 11.6537C28.3159 11.204 28.9109 10.5917 29.326 9.81686C29.7411 9.03509 29.9486 8.14263 29.9486 7.13947C29.9486 6.1294 29.7411 5.23348 29.326 4.45171C28.9109 3.66994 28.3124 3.05767 27.5307 2.6149C26.7558 2.17213 25.8219 1.95074 24.7288 1.95074H19.5089V22H18.2117ZM33.2305 22H31.8607L39.5296 0.746956H41.024L48.6929 22H47.3231L40.3287 2.41773H40.2249L33.2305 22ZM35.1711 13.999H45.3825V15.2028H35.1711V13.999ZM64.1138 6.06022C64.0031 4.73882 63.4635 3.66994 62.4949 2.85358C61.5333 2.03722 60.288 1.62904 58.7591 1.62904C57.7282 1.62904 56.8116 1.81929 56.009 2.1998C55.2065 2.58031 54.5769 3.09918 54.1203 3.75642C53.6637 4.41366 53.4354 5.16776 53.4354 6.01871C53.4354 6.56525 53.5392 7.05991 53.7467 7.50268C53.9612 7.93854 54.2622 8.32942 54.6496 8.67534C55.037 9.01433 55.4971 9.31182 56.0298 9.5678C56.5625 9.82378 57.1505 10.0486 57.794 10.2423L60.1185 10.9272C60.9141 11.1694 61.6474 11.4496 62.3185 11.7678C62.9965 12.0861 63.5846 12.4666 64.0827 12.9093C64.5877 13.3452 64.9786 13.8572 65.2553 14.4452C65.539 15.0333 65.6808 15.7113 65.6808 16.4792C65.6808 17.6 65.3903 18.6031 64.8091 19.4887C64.2349 20.3742 63.4151 21.0729 62.3497 21.5849C61.2912 22.0899 60.0424 22.3425 58.6034 22.3425C57.2336 22.3425 56.0402 22.1107 55.0232 21.6472C54.0131 21.1836 53.214 20.5402 52.626 19.717C52.0379 18.8868 51.7058 17.932 51.6297 16.8528H52.9581C53.0272 17.7314 53.3074 18.4924 53.7986 19.1358C54.2967 19.7723 54.9574 20.2635 55.7807 20.6094C56.604 20.9553 57.5449 21.1283 58.6034 21.1283C59.7449 21.1283 60.7515 20.9346 61.6232 20.5472C62.4949 20.1528 63.1764 19.6063 63.6676 18.9075C64.1588 18.2088 64.4044 17.3959 64.4044 16.4688C64.4044 15.7216 64.228 15.0817 63.8751 14.549C63.5223 14.0163 63 13.5562 62.3081 13.1688C61.6232 12.7814 60.7723 12.4354 59.7553 12.131L57.2751 11.3839C55.6147 10.8788 54.3452 10.1904 53.4665 9.31874C52.5948 8.44703 52.159 7.36086 52.159 6.06022C52.159 4.96712 52.4496 3.99856 53.0307 3.15453C53.6118 2.30358 54.4005 1.63596 55.3968 1.15168C56.3999 0.667396 57.5311 0.425255 58.7902 0.425255C60.0562 0.425255 61.1735 0.670855 62.1421 1.16205C63.1107 1.64634 63.8786 2.31395 64.4459 3.16491C65.0132 4.00894 65.328 4.97404 65.3903 6.06022H64.1138ZM82.264 6.06022C82.1533 4.73882 81.6137 3.66994 80.6451 2.85358C79.6835 2.03722 78.4382 1.62904 76.9092 1.62904C75.8784 1.62904 74.9617 1.81929 74.1592 2.1998C73.3567 2.58031 72.7271 3.09918 72.2705 3.75642C71.8139 4.41366 71.5856 5.16776 71.5856 6.01871C71.5856 6.56525 71.6894 7.05991 71.8969 7.50268C72.1114 7.93854 72.4123 8.32942 72.7998 8.67534C73.1872 9.01433 73.6473 9.31182 74.18 9.5678C74.7127 9.82378 75.3007 10.0486 75.9441 10.2423L78.2687 10.9272C79.0643 11.1694 79.7976 11.4496 80.4687 11.7678C81.1467 12.0861 81.7348 12.4666 82.2329 12.9093C82.7379 13.3452 83.1288 13.8572 83.4055 14.4452C83.6892 15.0333 83.831 15.7113 83.831 16.4792C83.831 17.6 83.5404 18.6031 82.9593 19.4887C82.3851 20.3742 81.5653 21.0729 80.4998 21.5849C79.4413 22.0899 78.1926 22.3425 76.7536 22.3425C75.3837 22.3425 74.1903 22.1107 73.1733 21.6472C72.1633 21.1836 71.3642 20.5402 70.7762 19.717C70.1881 18.8868 69.856 17.932 69.7799 16.8528H71.1082C71.1774 17.7314 71.4576 18.4924 71.9488 19.1358C72.4469 19.7723 73.1076 20.2635 73.9309 20.6094C74.7542 20.9553 75.6951 21.1283 76.7536 21.1283C77.8951 21.1283 78.9017 20.9346 79.7734 20.5472C80.6451 20.1528 81.3266 19.6063 81.8178 18.9075C82.309 18.2088 82.5546 17.3959 82.5546 16.4688C82.5546 15.7216 82.3782 15.0817 82.0253 14.549C81.6725 14.0163 81.1502 13.5562 80.4583 13.1688C79.7734 12.7814 78.9225 12.4354 77.9055 12.131L75.4253 11.3839C73.7649 10.8788 72.4954 10.1904 71.6167 9.31874C70.745 8.44703 70.3092 7.36086 70.3092 6.06022C70.3092 4.96712 70.5997 3.99856 71.1809 3.15453C71.762 2.30358 72.5507 1.63596 73.5469 1.15168C74.5501 0.667396 75.6812 0.425255 76.9404 0.425255C78.2064 0.425255 79.3237 0.670855 80.2923 1.16205C81.2609 1.64634 82.0288 2.31395 82.5961 3.16491C83.1634 4.00894 83.4782 4.97404 83.5404 6.06022H82.264ZM105.862 11.3735C105.862 13.5666 105.482 15.483 104.721 17.1226C103.96 18.7553 102.901 20.0248 101.545 20.9311C100.196 21.8374 98.6396 22.2906 96.8755 22.2906C95.1044 22.2906 93.5409 21.8374 92.1849 20.9311C90.8358 20.0179 89.7808 18.7449 89.0197 17.1122C88.2587 15.4726 87.8782 13.5597 87.8782 11.3735C87.8782 9.18037 88.2587 7.26746 89.0197 5.63474C89.7877 4.00202 90.8462 2.73251 92.1952 1.82621C93.5443 0.912995 95.1044 0.456387 96.8755 0.456387C98.6396 0.456387 100.196 0.909536 101.545 1.81583C102.901 2.72213 103.96 3.9951 104.721 5.63474C105.482 7.26746 105.862 9.18037 105.862 11.3735ZM104.596 11.3735C104.596 9.40176 104.264 7.69294 103.6 6.24701C102.943 4.80109 102.033 3.68378 100.871 2.89509C99.7085 2.09948 98.3767 1.70168 96.8755 1.70168C95.3742 1.70168 94.0424 2.09603 92.8802 2.88471C91.7179 3.66648 90.8047 4.78379 90.1405 6.23663C89.4833 7.68256 89.1546 9.39484 89.1546 11.3735C89.1546 13.3314 89.4798 15.0367 90.1301 16.4896C90.7874 17.9355 91.6971 19.0563 92.8594 19.8519C94.0217 20.6475 95.3604 21.0453 96.8755 21.0453C98.3767 21.0453 99.7085 20.6509 100.871 19.8622C102.033 19.0666 102.943 17.9459 103.6 16.4999C104.264 15.054 104.596 13.3452 104.596 11.3735ZM29.8047 97.6075C23.6603 97.5837 18.3733 96.0714 13.9436 93.0707C9.53774 90.07 6.14405 85.7236 3.76251 80.0318C1.40478 74.3399 0.237825 67.4929 0.26164 59.491C0.26164 51.5128 1.4405 44.7135 3.79823 39.0931C6.17977 33.4726 9.57347 29.1978 13.9793 26.2685C18.409 23.3154 23.6841 21.8388 29.8047 21.8388C35.9252 21.8388 41.1884 23.3154 45.5943 26.2685C50.0239 29.2216 53.4296 33.5084 55.8111 39.1288C58.1926 44.7254 59.3715 51.5128 59.3477 59.491C59.3477 67.5168 58.1569 74.3756 55.7754 80.0675C53.4176 85.7594 50.0359 90.1057 45.63 93.1064C41.2242 96.1072 35.949 97.6075 29.8047 97.6075ZM29.8047 84.7829C33.9962 84.7829 37.3422 82.6753 39.8429 78.4599C42.3435 74.2446 43.5819 67.9216 43.5581 59.491C43.5581 53.942 42.9865 49.3218 41.8434 45.6304C40.724 41.939 39.1284 39.1645 37.0565 37.3069C35.0083 35.4493 32.5911 34.5205 29.8047 34.5205C25.637 34.5205 22.3028 36.6044 19.8022 40.7721C17.3016 44.9398 16.0394 51.1794 16.0155 59.491C16.0155 65.1114 16.5752 69.803 17.6945 73.5659C18.8377 77.3049 20.4452 80.1151 22.5171 81.9965C24.5891 83.8541 27.0183 84.7829 29.8047 84.7829ZM70.3772 96V84.8544L96.4194 60.7413C98.6342 58.5979 100.492 56.6688 101.992 54.9541C103.516 53.2394 104.671 51.5604 105.457 49.9172C106.243 48.2501 106.636 46.452 106.636 44.523C106.636 42.3796 106.148 40.5339 105.172 38.9859C104.195 37.4141 102.861 36.2114 101.171 35.3779C99.4796 34.5205 97.5625 34.0918 95.4191 34.0918C93.1805 34.0918 91.2276 34.5443 89.5605 35.4493C87.8934 36.3543 86.6074 37.6522 85.7024 39.3431C84.7974 41.034 84.3449 43.0464 84.3449 45.3803H69.6627C69.6627 40.5934 70.7463 36.4377 72.9135 32.913C75.0807 29.3883 78.1172 26.6614 82.0229 24.7324C85.9287 22.8033 90.4298 21.8388 95.5263 21.8388C100.766 21.8388 105.326 22.7676 109.208 24.6252C113.114 26.459 116.15 29.0072 118.318 32.27C120.485 35.5327 121.568 39.2717 121.568 43.487C121.568 46.2496 121.021 48.9765 119.925 51.6676C118.853 54.3587 116.936 57.3476 114.174 60.6341C111.411 63.8968 107.517 67.8145 102.492 72.387L91.8111 82.8539V83.354H122.533V96H70.3772Z" fill="#D9D9D9"></path></svg>