<svg xmlns="http://www.w3.org/2000/svg" width="126" height="98" viewBox="0 0 126 98" fill="none"><path d="M19.7117 22V0.746956H26.2599C27.609 0.746956 28.7643 1.02369 29.726 1.57715C30.6945 2.13062 31.4382 2.88817 31.9571 3.84982C32.476 4.81146 32.7354 5.90801 32.7354 7.13947C32.7354 8.3571 32.476 9.44673 31.9571 10.4084C31.4382 11.37 30.6945 12.131 29.726 12.6914C28.7643 13.2449 27.6124 13.5216 26.2703 13.5216H20.6249V12.3178H26.2391C27.3322 12.3178 28.2662 12.0964 29.0411 11.6537C29.8159 11.204 30.4109 10.5917 30.826 9.81686C31.2411 9.03509 31.4486 8.14263 31.4486 7.13947C31.4486 6.1294 31.2411 5.23348 30.826 4.45171C30.4109 3.66994 29.8124 3.05767 29.0307 2.6149C28.2558 2.17213 27.3219 1.95074 26.2288 1.95074H21.0089V22H19.7117ZM34.7305 22H33.3607L41.0296 0.746956H42.524L50.1929 22H48.8231L41.8287 2.41773H41.7249L34.7305 22ZM36.6711 13.999H46.8825V15.2028H36.6711V13.999ZM65.6138 6.06022C65.5031 4.73882 64.9635 3.66994 63.9949 2.85358C63.0333 2.03722 61.788 1.62904 60.2591 1.62904C59.2282 1.62904 58.3116 1.81929 57.509 2.1998C56.7065 2.58031 56.0769 3.09918 55.6203 3.75642C55.1637 4.41366 54.9354 5.16776 54.9354 6.01871C54.9354 6.56525 55.0392 7.05991 55.2467 7.50268C55.4612 7.93854 55.7622 8.32942 56.1496 8.67534C56.537 9.01433 56.9971 9.31182 57.5298 9.5678C58.0625 9.82378 58.6505 10.0486 59.294 10.2423L61.6185 10.9272C62.4141 11.1694 63.1474 11.4496 63.8185 11.7678C64.4965 12.0861 65.0846 12.4666 65.5827 12.9093C66.0877 13.3452 66.4786 13.8572 66.7553 14.4452C67.039 15.0333 67.1808 15.7113 67.1808 16.4792C67.1808 17.6 66.8903 18.6031 66.3091 19.4887C65.7349 20.3742 64.9151 21.0729 63.8497 21.5849C62.7912 22.0899 61.5424 22.3425 60.1034 22.3425C58.7336 22.3425 57.5402 22.1107 56.5232 21.6472C55.5131 21.1836 54.714 20.5402 54.126 19.717C53.5379 18.8868 53.2058 17.932 53.1297 16.8528H54.4581C54.5272 17.7314 54.8074 18.4924 55.2986 19.1358C55.7967 19.7723 56.4574 20.2635 57.2807 20.6094C58.104 20.9553 59.0449 21.1283 60.1034 21.1283C61.2449 21.1283 62.2515 20.9346 63.1232 20.5472C63.9949 20.1528 64.6764 19.6063 65.1676 18.9075C65.6588 18.2088 65.9044 17.3959 65.9044 16.4688C65.9044 15.7216 65.728 15.0817 65.3751 14.549C65.0223 14.0163 64.5 13.5562 63.8081 13.1688C63.1232 12.7814 62.2723 12.4354 61.2553 12.131L58.7751 11.3839C57.1147 10.8788 55.8452 10.1904 54.9665 9.31874C54.0948 8.44703 53.659 7.36086 53.659 6.06022C53.659 4.96712 53.9496 3.99856 54.5307 3.15453C55.1118 2.30358 55.9005 1.63596 56.8968 1.15168C57.8999 0.667396 59.0311 0.425255 60.2902 0.425255C61.5562 0.425255 62.6735 0.670855 63.6421 1.16205C64.6107 1.64634 65.3786 2.31395 65.9459 3.16491C66.5132 4.00894 66.828 4.97404 66.8903 6.06022H65.6138ZM83.764 6.06022C83.6533 4.73882 83.1137 3.66994 82.1451 2.85358C81.1835 2.03722 79.9382 1.62904 78.4092 1.62904C77.3784 1.62904 76.4617 1.81929 75.6592 2.1998C74.8567 2.58031 74.2271 3.09918 73.7705 3.75642C73.3139 4.41366 73.0856 5.16776 73.0856 6.01871C73.0856 6.56525 73.1894 7.05991 73.3969 7.50268C73.6114 7.93854 73.9123 8.32942 74.2998 8.67534C74.6872 9.01433 75.1473 9.31182 75.68 9.5678C76.2127 9.82378 76.8007 10.0486 77.4441 10.2423L79.7687 10.9272C80.5643 11.1694 81.2976 11.4496 81.9687 11.7678C82.6467 12.0861 83.2348 12.4666 83.7329 12.9093C84.2379 13.3452 84.6288 13.8572 84.9055 14.4452C85.1892 15.0333 85.331 15.7113 85.331 16.4792C85.331 17.6 85.0404 18.6031 84.4593 19.4887C83.8851 20.3742 83.0653 21.0729 81.9998 21.5849C80.9413 22.0899 79.6926 22.3425 78.2536 22.3425C76.8837 22.3425 75.6903 22.1107 74.6733 21.6472C73.6633 21.1836 72.8642 20.5402 72.2762 19.717C71.6881 18.8868 71.356 17.932 71.2799 16.8528H72.6082C72.6774 17.7314 72.9576 18.4924 73.4488 19.1358C73.9469 19.7723 74.6076 20.2635 75.4309 20.6094C76.2542 20.9553 77.1951 21.1283 78.2536 21.1283C79.3951 21.1283 80.4017 20.9346 81.2734 20.5472C82.1451 20.1528 82.8266 19.6063 83.3178 18.9075C83.809 18.2088 84.0546 17.3959 84.0546 16.4688C84.0546 15.7216 83.8782 15.0817 83.5253 14.549C83.1725 14.0163 82.6502 13.5562 81.9583 13.1688C81.2734 12.7814 80.4225 12.4354 79.4055 12.131L76.9253 11.3839C75.2649 10.8788 73.9954 10.1904 73.1167 9.31874C72.245 8.44703 71.8092 7.36086 71.8092 6.06022C71.8092 4.96712 72.0997 3.99856 72.6809 3.15453C73.262 2.30358 74.0507 1.63596 75.0469 1.15168C76.0501 0.667396 77.1812 0.425255 78.4404 0.425255C79.7064 0.425255 80.8237 0.670855 81.7923 1.16205C82.7609 1.64634 83.5288 2.31395 84.0961 3.16491C84.6634 4.00894 84.9782 4.97404 85.0404 6.06022H83.764ZM107.362 11.3735C107.362 13.5666 106.982 15.483 106.221 17.1226C105.46 18.7553 104.401 20.0248 103.045 20.9311C101.696 21.8374 100.14 22.2906 98.3755 22.2906C96.6044 22.2906 95.0409 21.8374 93.6849 20.9311C92.3358 20.0179 91.2808 18.7449 90.5197 17.1122C89.7587 15.4726 89.3782 13.5597 89.3782 11.3735C89.3782 9.18037 89.7587 7.26746 90.5197 5.63474C91.2877 4.00202 92.3462 2.73251 93.6952 1.82621C95.0443 0.912995 96.6044 0.456387 98.3755 0.456387C100.14 0.456387 101.696 0.909536 103.045 1.81583C104.401 2.72213 105.46 3.9951 106.221 5.63474C106.982 7.26746 107.362 9.18037 107.362 11.3735ZM106.096 11.3735C106.096 9.40176 105.764 7.69294 105.1 6.24701C104.443 4.80109 103.533 3.68378 102.371 2.89509C101.209 2.09948 99.8767 1.70168 98.3755 1.70168C96.8742 1.70168 95.5424 2.09603 94.3802 2.88471C93.2179 3.66648 92.3047 4.78379 91.6405 6.23663C90.9833 7.68256 90.6546 9.39484 90.6546 11.3735C90.6546 13.3314 90.9798 15.0367 91.6301 16.4896C92.2874 17.9355 93.1971 19.0563 94.3594 19.8519C95.5217 20.6475 96.8604 21.0453 98.3755 21.0453C99.8767 21.0453 101.209 20.6509 102.371 19.8622C103.533 19.0666 104.443 17.9459 105.1 16.4999C105.764 15.054 106.096 13.3452 106.096 11.3735ZM29.8311 97.6075C23.6867 97.5837 18.3997 96.0714 13.97 93.0707C9.56417 90.07 6.17047 85.7236 3.78893 80.0318C1.4312 74.3399 0.264245 67.4929 0.288061 59.491C0.288061 51.5128 1.46692 44.7135 3.82465 39.0931C6.20619 33.4726 9.59989 29.1978 14.0057 26.2685C18.4354 23.3154 23.7105 21.8388 29.8311 21.8388C35.9516 21.8388 41.2149 23.3154 45.6207 26.2685C50.0504 29.2216 53.456 33.5084 55.8375 39.1288C58.2191 44.7254 59.3979 51.5128 59.3741 59.491C59.3741 67.5168 58.1833 74.3756 55.8018 80.0675C53.4441 85.7594 50.0623 90.1057 45.6564 93.1064C41.2506 96.1072 35.9755 97.6075 29.8311 97.6075ZM29.8311 84.7829C34.0226 84.7829 37.3687 82.6753 39.8693 78.4599C42.3699 74.2446 43.6083 67.9216 43.5845 59.491C43.5845 53.942 43.0129 49.3218 41.8698 45.6304C40.7505 41.939 39.1548 39.1645 37.0829 37.3069C35.0347 35.4493 32.6175 34.5205 29.8311 34.5205C25.6634 34.5205 22.3292 36.6044 19.8286 40.7721C17.328 44.9398 16.0658 51.1794 16.042 59.491C16.042 65.1114 16.6016 69.803 17.7209 73.5659C18.8641 77.3049 20.4716 80.1151 22.5436 81.9965C24.6155 83.8541 27.0447 84.7829 29.8311 84.7829ZM97.446 97.0002C92.1114 97.0002 87.3602 96.0834 83.1925 94.2496C79.0486 92.392 75.774 89.8437 73.3686 86.6048C70.9871 83.3421 69.7606 79.5793 69.6892 75.3163H85.2644C85.3597 77.1025 85.9432 78.6743 87.0149 80.0318C88.1104 81.3654 89.5631 82.4014 91.3731 83.1397C93.1831 83.878 95.2193 84.2471 97.4817 84.2471C99.8395 84.2471 101.923 83.8303 103.733 82.9968C105.543 82.1632 106.96 81.0082 107.984 79.5316C109.008 78.0551 109.52 76.3523 109.52 74.4232C109.52 72.4704 108.973 70.7438 107.877 69.2434C106.805 67.7192 105.257 66.5284 103.233 65.6711C101.233 64.8137 98.8511 64.385 96.0885 64.385H89.2654V53.0251H96.0885C98.4225 53.0251 100.482 52.6202 102.269 51.8105C104.079 51.0008 105.484 49.8815 106.484 48.4525C107.484 46.9998 107.984 45.3089 107.984 43.3798C107.984 41.5461 107.544 39.9385 106.663 38.5572C105.805 37.1521 104.591 36.0566 103.019 35.2707C101.471 34.4848 99.6609 34.0918 97.5889 34.0918C95.4932 34.0918 93.576 34.4729 91.8375 35.235C90.099 35.9732 88.7058 37.033 87.6579 38.4143C86.61 39.7956 86.0503 41.4151 85.9789 43.2727H71.1538C71.2252 39.0573 72.4279 35.3421 74.7618 32.1271C77.0957 28.912 80.2394 26.3995 84.1927 24.5895C88.1699 22.7557 92.6591 21.8388 97.6604 21.8388C102.709 21.8388 107.127 22.7557 110.914 24.5895C114.7 26.4233 117.641 28.9001 119.737 32.0199C121.857 35.1159 122.905 38.5929 122.881 42.451C122.905 46.5473 121.631 49.9648 119.059 52.7036C116.51 55.4424 113.188 57.1809 109.092 57.9192V58.4907C114.474 59.1814 118.57 61.0509 121.381 64.0993C124.215 67.1238 125.62 70.9105 125.596 75.4592C125.62 79.6269 124.417 83.3302 121.988 86.5691C119.582 89.808 116.26 92.3562 112.021 94.2138C107.782 96.0714 102.924 97.0002 97.446 97.0002Z" fill="#D9D9D9"></path></svg>