<svg xmlns="http://www.w3.org/2000/svg" xmlns:xlink="http://www.w3.org/1999/xlink" width="124" height="124" x="0" y="0" viewBox="0 0 511.998 511.998" style="enable-background:new 0 0 512 512" xml:space="preserve"><g><circle cx="222.919" cy="169.04" r="6.68" fill="#000000" opacity="1" data-original="#000000"></circle><circle cx="283.039" cy="169.04" r="6.68" fill="#000000" opacity="1" data-original="#000000"></circle><path d="M281.871 203.911a7.472 7.472 0 0 0-10.505 1.151 19.723 19.723 0 0 1-15.452 7.419 19.735 19.735 0 0 1-15.396-7.349 7.472 7.472 0 1 0-11.614 9.406c6.634 8.19 16.479 12.888 27.01 12.888 10.592 0 20.472-4.742 27.108-13.01a7.472 7.472 0 0 0-1.151-10.505z" fill="#000000" opacity="1" data-original="#000000"></path><path d="M439.796 290.919c0-17.398-14.154-31.552-31.553-31.552h-17.477a7.473 7.473 0 0 0-7.473 7.502l.081 20.17a63.422 63.422 0 0 0-4.779-1.754l-70.766-22.688c.41-2.474.633-5.01.633-7.599v-12.961a83.501 83.501 0 0 0 2.575-2.234c15.123-13.745 24.584-32.468 26.641-52.719a7.473 7.473 0 0 0-14.868-1.51c-3.517 34.632-32.461 60.748-67.327 60.748-37.317 0-67.677-30.36-67.677-67.677V149.38h135.353v6.325a7.473 7.473 0 0 0 14.946 0v-6.325h14.441c7.244 0 13.137-5.893 13.137-13.137v-15.762c0-7.243-5.893-13.136-13.137-13.136h-1.996v-1.84c0-45.75-32.485-84.052-75.6-93.06-.844-7-6.81-12.445-14.034-12.445h-10.863c-7.224 0-13.19 5.445-14.036 12.445-43.115 9.008-75.6 47.31-75.6 93.06v1.84h-1.997c-7.243 0-13.136 5.893-13.136 13.136v15.762c0 7.244 5.893 13.137 13.136 13.137h14.442v29.267c0 24.618 10.835 46.741 27.972 61.891v14.461c0 2.855.273 5.645.769 8.358l-38.762 12.428a7.473 7.473 0 1 0 4.564 14.232l21.241-6.81-18.103 24.319h-45.947l-.006-1.447c4.102-2.858 8.518-5.067 13.18-6.562a7.472 7.472 0 1 0-4.563-14.231 63.613 63.613 0 0 0-8.686 3.52l-.089-21.997a7.473 7.473 0 0 0-7.473-7.443h-13.205c-17.398 0-31.552 14.154-31.552 31.552 0 4.082.788 7.981 2.205 11.565l12.527 47.802a7.476 7.476 0 0 0 7.224 5.58 7.472 7.472 0 0 0 7.233-9.369l-6.641-25.342a31.436 31.436 0 0 0 9.004 1.316h108.958l.03.002.036-.002h195.465c2.968 0 5.838-.421 8.563-1.19l-17.14 61.253a7.467 7.467 0 0 0-.26 1.525h-20.331c-6.993 0-13.073 4.49-15.131 11.175l-11.361 36.921c-1.493 4.852-.62 9.978 2.397 14.062 3.016 4.084 7.658 6.426 12.734 6.426h12.335l-9.503 33.96c-1.722 6.154-7.388 10.452-13.778 10.452H151.891a14.314 14.314 0 0 1-13.84-10.68l-8.841-33.732h13.716c5.077 0 9.719-2.342 12.735-6.426s3.89-9.209 2.397-14.062l-11.362-36.921c-2.057-6.684-8.138-11.175-15.131-11.175h-20.328l-.358-1.367-.022-.082-1.602-6.111a7.47 7.47 0 0 0-14.641.983 15.694 15.694 0 0 0-9.199 5.849c-3.02 3.953-4.003 8.973-2.695 13.773l11.952 43.869c1.872 6.871 8.153 11.67 15.274 11.67h3.814l9.834 37.52c3.37 12.857 15.005 21.836 28.297 21.836h204.876c13.066 0 24.649-8.787 28.171-21.37l10.629-37.987h5.126c7.121 0 13.403-4.799 15.275-11.67l11.952-43.87c1.308-4.799.325-9.82-2.695-13.773a15.714 15.714 0 0 0-8.661-5.72l21.009-75.079a31.366 31.366 0 0 0 2.223-11.61zM275.064 27.813c34.745 8.76 60.542 40.266 60.542 77.692v1.84h-43.842V80.901c0-8.696-7.075-15.771-15.771-15.771h-.929V27.813zm-24.215-2.286h.001a80.875 80.875 0 0 1 4.634-.144c1.556 0 3.1.056 4.634.144v38.767h-9.269V25.527zm25.145 54.549a.824.824 0 0 1 .825.824v25.979H234.15V80.901c0-.455.37-.825.825-.825h41.019zm-100.631 25.429c0-37.426 25.797-68.932 60.542-77.692V65.13h-.929c-8.696 0-15.771 7.075-15.771 15.771v26.444h-43.842v-1.84zm-15.133 28.929V122.29h190.509v12.144H160.23zm-56.476 173.092c-9.157 0-16.606-7.449-16.606-16.606s7.45-16.607 16.606-16.607h5.762l.109 27.103a7.482 7.482 0 0 0 .008 2.011l.017 4.099h-5.896zm85.42 0 13.499-18.133v6.404c0 3.931.302 7.85.879 11.729h-14.378zm26.605-56.448a82.099 82.099 0 0 0 39.705 10.191 82.457 82.457 0 0 0 38.034-9.284v3.013c0 17.317-14.088 31.405-31.405 31.405h-14.929c-17.317 0-31.405-14.088-31.405-31.405v-3.92zm76.699 56.449H218.7v-.001a64.751 64.751 0 0 1-1.081-11.729v-5.131c8.03 6.668 18.337 10.683 29.566 10.683h14.929c12.104 0 23.134-4.669 31.398-12.293l.007 6.958c0 3.864-.355 7.717-1.041 11.513zm15.139-.001c.556-3.809.847-7.656.847-11.513v-6.58l13.469 18.093h-14.316zm32.948 0-18.322-24.612 51.79 16.604a49.062 49.062 0 0 1 9.409 4.166l.016 3.842h-42.893zM109.947 437.698a.888.888 0 0 1-.855-.654L97.14 393.175a.833.833 0 0 1 .151-.771.83.83 0 0 1 .593-.343l.292 1.112c.008.028.021.053.029.082.779 3.295 3.733 5.749 7.266 5.749h26.094a.88.88 0 0 1 .847.625l11.362 36.922a.83.83 0 0 1-.134.787c-.266.36-.602.36-.713.36h-32.98zm303.552-44.523-11.952 43.87a.888.888 0 0 1-.855.653h-32.98c-.11 0-.447 0-.712-.36-.266-.36-.166-.681-.134-.787l11.361-36.921a.883.883 0 0 1 .847-.626H404.1a7.473 7.473 0 0 0 7.455-6.949h1.09c.108 0 .437 0 .703.348.267.349.18.667.151.772zm-5.256-85.649h-9.84l-.024-5.926a7.468 7.468 0 0 0-.016-3.856l-.094-23.431h9.974c9.157 0 16.607 7.45 16.607 16.607s-7.45 16.606-16.607 16.606z" fill="#000000" opacity="1" data-original="#000000"></path><path d="M342.088 363.447h-12.612l4.883-18.52a7.473 7.473 0 0 0-5.32-9.131 7.467 7.467 0 0 0-9.131 5.32l-5.887 22.331h-57.122v-20.426a7.473 7.473 0 0 0-14.946 0v20.426h-55.602l-5.888-22.331a7.47 7.47 0 0 0-9.131-5.32 7.471 7.471 0 0 0-5.32 9.131l4.883 18.52h-10.146a7.473 7.473 0 0 0 0 14.946h14.086l6.567 24.909h-9.563a7.473 7.473 0 0 0 0 14.946h13.504l6.567 24.909h-8.516a7.473 7.473 0 0 0 0 14.946h12.456l5.231 19.84a7.476 7.476 0 0 0 7.221 5.57 7.471 7.471 0 0 0 7.23-9.38l-4.226-16.029h30.646v17.935a7.473 7.473 0 0 0 14.946 0v-17.935h32.166l-4.226 16.029a7.473 7.473 0 1 0 14.451 3.81l5.231-19.84h14.922a7.473 7.473 0 0 0 0-14.946h-10.981l6.567-24.909h15.97a7.473 7.473 0 0 0 0-14.946h-12.029l6.567-24.909h16.552a7.473 7.473 0 0 0 0-14.946zm-151.797 14.946h51.662v24.909h-45.094l-6.568-24.909zm51.662 64.764h-34.587l-6.567-24.909h41.154v24.909zm51.051 0h-36.106v-24.909h42.674l-6.568 24.909zm10.508-39.855h-46.614v-24.909h53.181l-6.567 24.909z" fill="#000000" opacity="1" data-original="#000000"></path></g></svg>