<svg xmlns="http://www.w3.org/2000/svg" xmlns:xlink="http://www.w3.org/1999/xlink" width="124" height="124" x="0" y="0" viewBox="0 0 64 64" style="enable-background:new 0 0 512 512" xml:space="preserve"><g><path d="M63 17a15.994 15.994 0 0 0-31.189-5H11a1 1 0 0 0-.955.7l-9 29A1.033 1.033 0 0 0 1 42v4a1 1 0 0 0 1 1h6a4 4 0 0 0 4 4h12v6h-3a3 3 0 0 0-3 3v2a1 1 0 0 0 1 1h20a1 1 0 0 0 1-1v-2a3 3 0 0 0-3-3h-3v-6h12a4 4 0 0 0 4-4h6a1 1 0 0 0 1-1v-4a1.018 1.018 0 0 0-.044-.3L53.8 31.462A16.006 16.006 0 0 0 63 17Zm-18.675 5.546A7.647 7.647 0 0 1 43 8.539v6.543a1 1 0 0 0 .3.717l3 2.918a1 1 0 0 0 1.394 0l3-2.918a1 1 0 0 0 .3-.717V8.539a7.647 7.647 0 0 1-1.325 14.007 1 1 0 0 0-.675.945v7.349a12.58 12.58 0 0 1-4 0v-7.349a1 1 0 0 0-.669-.945ZM47 33c.176 0 .346-.021.52-.026L48.674 37h-6.846l-.952-5h.609A15.9 15.9 0 0 0 47 33ZM20.875 23l.953-5H28v5ZM28 25v5h-8.458l.952-5Zm-9.161-2h-5.513l1.428-5h5.037Zm-6.085 2h5.7l-.952 5h-6.18Zm-2 7h6.37l-.953 5H9.326Zm8.406 0H28v5h-9.791ZM30 32h8.839l.952 5H30Zm0-2v-5h3.165a16.092 16.092 0 0 0 4.543 5Zm0-7v-5h1.051a15.86 15.86 0 0 0 1.127 5Zm8 37v1H20v-1a1 1 0 0 1 1-1h16a1 1 0 0 1 1 1Zm-6-3h-6v-6h6Zm14-8H12a2 2 0 0 1-2-2h38a2 2 0 0 1-2 2ZM3 45v-2h52v2Zm51.645-4H3.357l8.379-27h19.556a15.856 15.856 0 0 0-.241 2H14a1 1 0 0 0-.962.726l-6 21A1 1 0 0 0 8 39h42a1 1 0 0 0 .961-1.275l-1.417-4.947a15.807 15.807 0 0 0 2.392-.566ZM51 30.41v-6.232a9.763 9.763 0 0 0 6-8.932 9.785 9.785 0 0 0-6.675-9.191A1 1 0 0 0 49 7v7.66l-2 1.945-2-1.945V7a1 1 0 0 0-1.325-.945A9.785 9.785 0 0 0 37 15.246a9.763 9.763 0 0 0 6 8.932v6.232a14 14 0 1 1 8 0Z" fill="#F15A2E" opacity="1" data-original="#000000"></path></g></svg>