<svg xmlns="http://www.w3.org/2000/svg" width="59" height="59" viewBox="0 0 59 59" fill="none"><path d="M52.7069 12.1917C53.4529 11.2676 53.8297 10.0996 53.7644 8.91374C53.6991 7.72786 53.1963 6.60835 52.3533 5.77177L49.6127 3.03214C49.4276 2.85712 49.1825 2.75959 48.9278 2.75959C48.673 2.75959 48.428 2.85712 48.2429 3.03214L47.558 3.71705L44.8174 0.977426L43.4476 2.34724L46.1882 5.08686L44.8183 6.45668L42.0778 3.71705L40.7079 5.08686L43.4485 7.82746L42.7627 8.51236C42.581 8.69403 42.479 8.94039 42.479 9.19727C42.479 9.45415 42.581 9.70051 42.7627 9.88218L45.5033 12.6218C46.2361 13.3633 47.1913 13.8447 48.2233 13.9927C49.2552 14.1406 50.3072 13.947 51.2189 13.4414C54.4645 18.0024 56.2019 23.4645 56.1876 29.0625C56.1847 33.514 55.087 37.8965 52.9911 41.8238C50.8952 45.7511 47.8656 49.1027 44.1692 51.5831C40.4727 54.0636 36.2229 55.5968 31.7942 56.0477C27.3656 56.4985 22.894 55.8532 18.7735 54.1686L18.0392 55.9608C22.4538 57.7664 27.2449 58.4583 31.99 57.9756C36.7352 57.4929 41.2887 55.8503 45.2493 53.1927C49.2099 50.535 52.456 46.944 54.7014 42.7359C56.9468 38.5279 58.1225 33.8321 58.1251 29.0625C58.1406 23.0086 56.2444 17.1044 52.7069 12.1917ZM46.8731 11.252L44.8174 9.19727L48.9278 5.08686L50.9825 7.14255C51.2601 7.41064 51.4815 7.73133 51.6338 8.08591C51.7861 8.44048 51.8663 8.82184 51.8696 9.20773C51.873 9.59362 51.7995 9.97631 51.6533 10.3335C51.5072 10.6906 51.2914 11.0151 51.0185 11.288C50.7457 11.5609 50.4212 11.7767 50.064 11.9228C49.7068 12.0689 49.3241 12.1425 48.9382 12.1391C48.5524 12.1358 48.171 12.0556 47.8164 11.9033C47.4618 11.751 47.1412 11.5296 46.8731 11.252ZM5.41831 45.9332C4.67226 46.8573 4.29545 48.0253 4.36076 49.2112C4.42608 50.397 4.92888 51.5166 5.77191 52.3531L8.5125 55.0928C8.69759 55.2678 8.94267 55.3653 9.19741 55.3653C9.45215 55.3653 9.69722 55.2678 9.88231 55.0928L10.5672 54.4079L13.3078 57.1475L14.6776 55.7777L11.937 53.0381L13.3068 51.6682L16.0474 54.4079L17.4173 53.0381L14.6767 50.2975L15.3625 49.6125C15.5441 49.4309 15.6462 49.1845 15.6462 48.9276C15.6462 48.6708 15.5441 48.4244 15.3625 48.2427L12.6219 45.5031C11.8891 44.7617 10.9339 44.2802 9.90193 44.1323C8.86999 43.9843 7.81797 44.1779 6.90631 44.6835C3.66069 40.1225 1.92331 34.6604 1.9376 29.0625C1.94049 24.6109 3.03823 20.2284 5.13409 16.3011C7.22995 12.3738 10.2596 9.02223 13.956 6.54178C17.6525 4.06134 21.9023 2.52813 26.331 2.07726C30.7596 1.62639 35.2312 2.2717 39.3517 3.95633L40.086 2.16414C35.6714 0.358529 30.8803 -0.33341 26.1352 0.149314C21.39 0.632038 16.8365 2.2746 12.8759 4.93224C8.91527 7.58987 5.66922 11.181 3.42383 15.389C1.17843 19.597 0.00264548 24.2928 9.48362e-05 29.0625C-0.0154516 35.1163 1.88074 41.0205 5.41831 45.9332ZM11.2521 46.8729L13.3078 48.9276L9.19741 53.0381L7.14269 50.9824C6.86511 50.7143 6.64371 50.3936 6.49139 50.039C6.33908 49.6844 6.25891 49.3031 6.25555 48.9172C6.2522 48.5313 6.32574 48.1486 6.47186 47.7914C6.61799 47.4343 6.83379 47.1098 7.10667 46.8369C7.37954 46.564 7.70403 46.3482 8.0612 46.2021C8.41837 46.056 8.80106 45.9824 9.18695 45.9858C9.57284 45.9891 9.9542 46.0693 10.3088 46.2216C10.6633 46.3739 10.984 46.5953 11.2521 46.8729Z" fill="#DDE0E4"></path><path d="M10.6563 29.0625C10.6563 32.7029 11.7358 36.2616 13.7584 39.2885C15.7809 42.3154 18.6555 44.6745 22.0188 46.0677C25.3821 47.4608 29.083 47.8253 32.6535 47.1151C36.2239 46.4049 39.5036 44.6518 42.0778 42.0777C44.6519 39.5035 46.405 36.2238 47.1152 32.6534C47.8254 29.0829 47.4609 25.382 46.0677 22.0187C44.6746 18.6554 42.3154 15.7808 39.2886 13.7583C36.2617 11.7358 32.703 10.6562 29.0626 10.6562C24.1826 10.6616 19.504 12.6026 16.0534 16.0533C12.6027 19.5039 10.6617 24.1825 10.6563 29.0625ZM45.5313 29.0625C45.5313 32.3197 44.5655 35.5038 42.7559 38.212C40.9462 40.9203 38.3742 43.0312 35.3649 44.2776C32.3556 45.5241 29.0443 45.8503 25.8497 45.2148C22.6551 44.5794 19.7206 43.0109 17.4174 40.7077C15.1142 38.4045 13.5457 35.47 12.9103 32.2754C12.2748 29.0808 12.601 25.7695 13.8475 22.7602C15.0939 19.7509 17.2048 17.1788 19.913 15.3692C22.6213 13.5596 25.8054 12.5938 29.0626 12.5938C33.4289 12.5986 37.6149 14.3353 40.7024 17.4227C43.7898 20.5102 45.5265 24.6962 45.5313 29.0625Z" fill="#DDE0E4"></path><path d="M28.1956 18.942L22.3831 30.567C22.3092 30.7148 22.2744 30.8789 22.2819 31.0439C22.2893 31.2089 22.3389 31.3692 22.4257 31.5096C22.5126 31.6501 22.634 31.766 22.7782 31.8464C22.9225 31.9267 23.0849 31.9689 23.2501 31.9688H28.0938V38.7501C28.0939 38.9682 28.1676 39.18 28.3029 39.351C28.4383 39.5221 28.6275 39.6425 28.8398 39.6926C29.0523 39.743 29.2756 39.72 29.4734 39.6276C29.6712 39.5351 29.832 39.3784 29.9296 39.1831L35.7421 27.5581C35.8159 27.4104 35.8508 27.2462 35.8433 27.0812C35.8358 26.9162 35.7863 26.7559 35.6994 26.6155C35.6126 26.475 35.4912 26.3591 35.3469 26.2787C35.2027 26.1984 35.0402 26.1562 34.8751 26.1563H30.0313V19.3751C30.0315 19.1566 29.9579 18.9446 29.8225 18.7732C29.687 18.6019 29.4976 18.4814 29.285 18.4313C29.0724 18.3811 28.8491 18.4043 28.6514 18.497C28.4536 18.5897 28.293 18.7465 28.1956 18.942ZM33.3076 28.0938L30.0313 34.6464V31.0001C30.0313 30.7431 29.9293 30.4967 29.7476 30.315C29.5659 30.1334 29.3195 30.0313 29.0626 30.0313H24.8175L28.0938 23.4787V27.1251C28.0938 27.382 28.1959 27.6284 28.3776 27.8101C28.5592 27.9917 28.8057 28.0938 29.0626 28.0938H33.3076Z" fill="#DDE0E4"></path></svg>