<svg xmlns="http://www.w3.org/2000/svg" width="52" height="60" viewBox="0 0 52 60" fill="none"><path d="M50.8303 24.8303H48.2051C48.0896 24.8303 47.9753 24.853 47.8687 24.8971C47.7621 24.9413 47.6652 25.006 47.5835 25.0877C47.5019 25.1693 47.4372 25.2662 47.393 25.3728C47.3489 25.4795 47.3261 25.5938 47.3261 25.7092C47.3261 26.1947 47.7195 26.5881 48.2051 26.5881H50.8303C51.3158 26.5881 51.7092 26.1947 51.7092 25.7092C51.7092 25.2237 51.3158 24.8303 50.8303 24.8303ZM3.79521 24.8303H1.16974C1.05431 24.8303 0.940018 24.853 0.833378 24.8971C0.726737 24.9413 0.629841 25.006 0.548224 25.0877C0.466606 25.1693 0.401867 25.2662 0.357704 25.3728C0.31354 25.4795 0.290817 25.5938 0.290833 25.7092C0.290833 26.1947 0.684231 26.5881 1.16974 26.5881H3.79497C3.9104 26.5881 4.0247 26.5654 4.13135 26.5212C4.238 26.4771 4.3349 26.4123 4.41653 26.3307C4.49816 26.2491 4.56291 26.1522 4.60708 26.0455C4.65126 25.9389 4.674 25.8246 4.674 25.7092C4.67404 25.5938 4.65134 25.4795 4.6072 25.3728C4.56305 25.2662 4.49833 25.1693 4.41672 25.0876C4.3351 25.006 4.23821 24.9413 4.13157 24.8971C4.02493 24.853 3.91063 24.8302 3.79521 24.8303ZM48.2648 12.8546C48.1482 12.6528 47.9562 12.5055 47.7311 12.4452C47.5059 12.3849 47.266 12.4164 47.0641 12.533L44.7907 13.8457C44.5888 13.9623 44.4415 14.1542 44.3811 14.3794C44.3208 14.6046 44.3524 14.8445 44.4689 15.0463C44.5855 15.2482 44.7775 15.3955 45.0026 15.4559C45.2278 15.5162 45.4677 15.4846 45.6696 15.3681L47.943 14.0554C48.043 13.9976 48.1306 13.9208 48.2009 13.8292C48.2712 13.7377 48.3227 13.6332 48.3526 13.5217C48.3825 13.4102 48.3901 13.2939 48.3751 13.1794C48.36 13.065 48.3225 12.9546 48.2648 12.8546ZM7.53103 36.3722C7.28845 35.9518 6.75056 35.808 6.33032 36.0505L4.05689 37.3631C3.95692 37.4208 3.8693 37.4977 3.79903 37.5893C3.72876 37.6808 3.67722 37.7853 3.64735 37.8968C3.61748 38.0083 3.60986 38.1246 3.62494 38.2391C3.64001 38.3535 3.67748 38.4639 3.73521 38.5638C3.97896 38.9863 4.51743 39.127 4.93591 38.8855L7.20935 37.5729C7.30931 37.5152 7.39693 37.4383 7.4672 37.3468C7.53747 37.2552 7.58901 37.1507 7.61889 37.0392C7.64876 36.9277 7.65637 36.8114 7.6413 36.6969C7.62622 36.5825 7.58875 36.4721 7.53103 36.3722ZM38.8547 3.44449C38.7547 3.38677 38.6444 3.3493 38.5299 3.33422C38.4155 3.31915 38.2992 3.32676 38.1877 3.35663C38.0762 3.38651 37.9717 3.43805 37.8801 3.50832C37.7885 3.57858 37.7117 3.6662 37.654 3.76617L36.3413 6.03961C36.0017 6.62766 36.4313 7.3582 37.1017 7.3582C37.2561 7.35837 37.4078 7.31782 37.5416 7.24065C37.6754 7.16348 37.7864 7.05241 37.8636 6.91863L39.1762 4.6452C39.234 4.54524 39.2714 4.4349 39.2865 4.32046C39.3016 4.20603 39.294 4.08974 39.2641 3.97824C39.2343 3.86674 39.1827 3.76222 39.1125 3.67064C39.0422 3.57906 38.9546 3.50221 38.8547 3.44449ZM15.337 44.1782C15.237 44.1204 15.1267 44.083 15.0123 44.0679C14.8978 44.0528 14.7815 44.0604 14.67 44.0903C14.5585 44.1202 14.454 44.1717 14.3624 44.242C14.2709 44.3123 14.194 44.3999 14.1363 44.4998L12.8237 46.7733C12.4841 47.3613 12.9137 48.0919 13.584 48.0919C13.7384 48.092 13.8902 48.0515 14.0239 47.9743C14.1577 47.8971 14.2688 47.7861 14.346 47.6523L15.6586 45.3789C15.7163 45.2789 15.7538 45.1686 15.7689 45.0541C15.784 44.9397 15.7764 44.8234 15.7466 44.7119C15.7167 44.6004 15.6652 44.4958 15.5949 44.4043C15.5246 44.3127 15.437 44.2359 15.337 44.1782ZM26 7.8153e-09C25.8846 -1.53851e-05 25.7703 0.0227077 25.6637 0.0668714C25.557 0.111035 25.4601 0.175774 25.3785 0.257391C25.2969 0.339008 25.2321 0.435904 25.188 0.542545C25.1438 0.649186 25.1211 0.763482 25.1211 0.878906V3.50402C25.1211 3.73712 25.2137 3.96068 25.3785 4.1255C25.5434 4.29033 25.7669 4.38293 26 4.38293C26.4855 4.38293 26.8789 3.98953 26.8789 3.50402V0.878906C26.8789 0.393398 26.4855 7.8153e-09 26 7.8153e-09ZM15.6588 6.03961L14.3462 3.76617C14.2296 3.56429 14.0376 3.41698 13.8125 3.35666C13.5873 3.29633 13.3474 3.32793 13.1455 3.44449C12.9436 3.56106 12.7963 3.75305 12.736 3.97822C12.6756 4.2034 12.7072 4.44331 12.8238 4.6452L14.1364 6.91863C14.2544 7.11771 14.4461 7.26223 14.67 7.32085C14.8938 7.37946 15.1318 7.34744 15.3322 7.23173C15.5326 7.11602 15.6793 6.92596 15.7404 6.70278C15.8016 6.4796 15.7722 6.24131 15.6588 6.03961ZM39.1763 46.7733L37.8637 44.4998C37.7472 44.298 37.5552 44.1507 37.33 44.0903C37.1048 44.03 36.8649 44.0616 36.663 44.1782C36.4611 44.2947 36.3138 44.4867 36.2535 44.7119C36.1932 44.9371 36.2248 45.177 36.3413 45.3789L37.654 47.6523C37.7719 47.8514 37.9636 47.9959 38.1875 48.0545C38.4114 48.1131 38.6493 48.0811 38.8497 47.9654C39.0501 47.8497 39.1968 47.6596 39.2579 47.4364C39.3191 47.2133 39.2898 46.975 39.1763 46.7733ZM7.20947 13.8456L4.93591 12.5327C4.83595 12.475 4.7256 12.4375 4.61116 12.4225C4.49672 12.4074 4.38043 12.415 4.26893 12.4449C4.15743 12.4747 4.05291 12.5263 3.96133 12.5966C3.86976 12.6668 3.79292 12.7544 3.73521 12.8544C3.61868 13.0563 3.58711 13.2962 3.64743 13.5214C3.70776 13.7466 3.85503 13.9386 4.05689 14.0552C6.31779 15.3172 6.35892 15.4859 6.76907 15.4859C7.66638 15.4859 7.98595 14.2938 7.20947 13.8456ZM47.9431 37.3631L45.6697 36.0505C45.4678 35.9339 45.2279 35.9023 45.0027 35.9627C44.7776 36.023 44.5856 36.1703 44.469 36.3722C44.3524 36.5741 44.3208 36.814 44.3812 37.0392C44.4415 37.2643 44.5888 37.4563 44.7907 37.5729L47.0641 38.8855C47.1974 38.9627 47.3487 39.0034 47.5027 39.0034C48.4001 39.0034 48.7195 37.8115 47.9431 37.3631Z" fill="black"></path><path d="M41.8752 13.552C41.8049 13.4604 41.7173 13.3835 41.6173 13.3258C41.5174 13.2681 41.407 13.2306 41.2926 13.2155C41.1781 13.2004 41.0618 13.208 40.9503 13.2378C40.8388 13.2677 40.7343 13.3192 40.6427 13.3895C40.5511 13.4597 40.4742 13.5473 40.4165 13.6473C40.3588 13.7472 40.3213 13.8576 40.3062 13.972C40.2911 14.0865 40.2987 14.2028 40.3285 14.3143C40.3584 14.4258 40.4099 14.5303 40.4802 14.6219C42.9383 17.8273 44.2377 21.6611 44.2377 25.7091C44.2377 31.8699 41.1589 37.5713 36.0023 40.9603C34.8281 41.7318 34.0343 42.9168 33.7643 44.2459H31.4758C31.3604 44.2458 31.2461 44.2686 31.1395 44.3127C31.0328 44.3569 30.9359 44.4216 30.8543 44.5033C30.7727 44.5849 30.7079 44.6818 30.6638 44.7884C30.6196 44.8951 30.5969 45.0093 30.5969 45.1248C30.5969 45.6103 30.9903 46.0037 31.4758 46.0037H33.661V47.2257H18.3389V46.0037H27.3741C27.8596 46.0037 28.253 45.6103 28.253 45.1248C28.253 44.6393 27.8596 44.2459 27.3741 44.2459H18.2009C17.8925 42.8885 17.0732 41.68 15.8782 40.8811C6.36254 34.5204 4.88199 21.0166 13.2083 12.7802C20.1665 5.89696 30.7802 5.85969 37.778 11.7855C37.9566 11.9307 38.185 12.0001 38.4141 11.9788C38.6432 11.9574 38.8549 11.8471 39.0036 11.6715C39.1523 11.4959 39.2262 11.269 39.2095 11.0395C39.1927 10.8099 39.0867 10.5961 38.9141 10.4439C31.2472 3.95153 19.6024 3.98223 11.972 11.5305C2.84562 20.5585 4.47359 35.372 14.9013 42.3426C15.9532 43.0457 16.5811 44.209 16.5811 45.4542V50.1234C16.5811 51.2348 17.246 52.1931 18.1986 52.6232V54.0052C18.1986 55.495 19.393 56.7103 20.8743 56.7458L21.2326 57.6461C21.8013 59.0761 23.1632 60 24.7019 60H27.121C28.7673 60 30.2243 59.0116 30.8328 57.482L31.1257 56.7458C32.6071 56.7103 33.8014 55.4949 33.8014 54.0052V52.6232C34.7539 52.1931 35.4189 51.2347 35.4189 50.1234V45.2587C35.4189 44.1242 35.9979 43.0667 36.9678 42.4293C42.6207 38.7144 45.9956 32.4638 45.9956 25.7091C45.9957 21.2708 44.5708 17.067 41.8752 13.552ZM27.1212 58.242H24.7021C23.1859 58.242 22.7855 56.7721 22.7669 56.7473H29.2332C29.2239 56.759 28.7489 58.242 27.1212 58.242ZM32.0438 54.005C32.0437 54.5478 31.6021 54.9894 31.0595 54.9894H20.9407C20.398 54.9894 19.9565 54.5478 19.9565 54.005V52.8652H32.0438V54.005ZM33.6611 50.1233C33.6611 50.666 33.2196 51.1075 32.6769 51.1075H19.3234C18.7805 51.1075 18.3391 50.666 18.3391 50.1233V48.9835H33.6612V50.1233H33.6611Z" fill="black"></path><path d="M39.9161 18.6718C39.6369 17.4584 38.6533 16.6286 37.4107 16.5574C35.2188 16.4312 32.9567 16.9941 30.8671 18.1831C30.6645 18.2983 30.516 18.4894 30.4542 18.7142C30.3925 18.939 30.4226 19.1791 30.5378 19.3818C30.6531 19.5844 30.8442 19.7329 31.069 19.7947C31.2938 19.8564 31.5339 19.8264 31.7366 19.7111C33.5309 18.6902 35.4597 18.2071 37.3103 18.3124C37.7668 18.3387 38.1003 18.6202 38.2027 19.0657C38.9239 22.2018 37.9362 25.7544 35.5606 28.5697C33.0111 31.5907 29.5516 32.968 26.6237 32.7702C27.0694 31.7475 27.6348 30.6304 28.3466 29.4909C29.5737 29.105 31.029 29.1762 31.0446 29.177C31.5298 29.2002 31.9429 28.8323 31.9698 28.3479C31.9762 28.2327 31.9598 28.1173 31.9216 28.0084C31.8834 27.8995 31.8241 27.7991 31.7471 27.7132C31.6701 27.6272 31.577 27.5572 31.4729 27.5072C31.3689 27.4572 31.256 27.4282 31.1408 27.4219C31.0971 27.4193 30.5352 27.3907 29.7765 27.4533C31.2437 25.5861 33.1459 23.7766 35.6036 22.3464C35.8011 22.2271 35.9437 22.035 36.0008 21.8115C36.0579 21.588 36.0248 21.3511 35.9088 21.1517C35.7928 20.9523 35.6031 20.8066 35.3806 20.7458C35.158 20.6851 34.9206 20.7142 34.7193 20.8269C33.3902 21.6002 32.2132 22.4749 31.1684 23.4066C31.1158 23.0286 31.0493 22.7829 31.0425 22.7582C30.9803 22.5342 30.8318 22.3442 30.6296 22.2296C30.4274 22.1151 30.188 22.0855 29.964 22.1473C29.497 22.275 29.2217 22.7579 29.3478 23.2255C29.3505 23.2359 29.6137 24.2395 29.3772 25.1947C28.4909 26.1838 27.7279 27.2043 27.0748 28.2139C27.0336 28.265 26.9987 28.3205 26.97 28.3791C26.4548 29.1896 25.9839 30.0274 25.5594 30.8889C25.2764 28.0514 26.2912 24.9965 28.3855 22.5148C28.4623 22.4236 28.5404 22.3338 28.6191 22.2454C28.772 22.0709 28.8497 21.8432 28.8354 21.6118C28.8211 21.3803 28.7159 21.1639 28.5427 21.0096C28.3695 20.8554 28.1424 20.7758 27.9109 20.7883C27.6793 20.8007 27.462 20.9041 27.3064 21.0761C27.2173 21.176 27.1292 21.2776 27.0421 21.3807C24.3116 24.6163 23.1855 28.7404 24.03 32.4124C24.115 32.7823 24.2663 33.1159 24.4696 33.4041C24.2041 34.108 23.9653 34.8217 23.7536 35.5437C23.6459 35.3336 23.5343 35.1256 23.4188 34.9198C24.0777 33.5249 23.4562 29.8229 20.547 27.2943C18.4481 25.4699 15.7437 24.6923 13.3127 25.2141C12.3984 25.4102 11.7642 26.1397 11.6971 27.0725C11.5189 29.5523 12.6657 32.1223 14.7648 33.9466C17.0132 35.9011 19.7895 36.5243 22.0198 36.0218C22.7718 37.4155 22.9282 38.0922 23.0827 38.3361C22.905 39.2926 22.8521 39.883 22.8475 39.9386C22.8278 40.1708 22.9011 40.4014 23.0514 40.5796C23.2017 40.7578 23.4166 40.869 23.6489 40.8888C23.8812 40.9085 24.1118 40.8352 24.29 40.6849C24.4682 40.5346 24.5794 40.3197 24.5991 40.0874C24.6015 40.0603 24.8244 37.6129 25.9643 34.4348C27.7078 34.895 32.9649 34.3713 36.9042 29.7039C39.6346 26.468 40.7606 22.3438 39.9161 18.6718ZM15.8817 29.9143C18.2054 31.0467 19.861 32.7389 21.0214 34.3997C19.2898 34.569 17.4235 33.9284 15.9178 32.6196C14.234 31.1561 13.3118 29.1294 13.4504 27.1983C13.4609 27.0525 13.5386 26.9631 13.6815 26.9324C15.5744 26.5257 17.7098 27.157 19.3937 28.6206C20.6103 29.6781 21.4265 31.0298 21.7351 32.427C20.4905 30.8884 18.8353 29.398 16.6516 28.3341C16.5478 28.2835 16.4351 28.2539 16.3199 28.2469C16.2047 28.2399 16.0893 28.2557 15.9801 28.2933C15.871 28.3309 15.7704 28.3897 15.684 28.4662C15.5975 28.5427 15.5271 28.6355 15.4765 28.7392C15.4259 28.843 15.3963 28.9557 15.3893 29.0709C15.3823 29.1861 15.3981 29.3016 15.4357 29.4107C15.4733 29.5198 15.5321 29.6205 15.6086 29.7069C15.6851 29.7933 15.7779 29.8638 15.8817 29.9143Z" fill="black"></path></svg>