<svg xmlns="http://www.w3.org/2000/svg" width="61" height="60" viewBox="0 0 61 60" fill="none"><path d="M2.01763 30C2.01763 14.561 14.6881 2.00004 30.2639 2.00004C39.0071 2.00004 47.1886 6.08109 52.515 13.0001H46.4048C45.8469 13.0001 45.396 13.4481 45.396 14C45.396 14.552 45.8469 15 46.4048 15H54.4751C54.5063 15 54.5336 14.985 54.5639 14.982C54.6315 14.9769 54.695 14.9619 54.7606 14.9429C54.8259 14.9241 54.8892 14.8986 54.9492 14.8669C54.9764 14.8529 55.0067 14.8508 55.033 14.8329C55.0612 14.8148 55.0763 14.7859 55.1015 14.7649C55.1551 14.7227 55.2038 14.6747 55.2468 14.622C55.2871 14.5719 55.3225 14.522 55.3518 14.4669C55.382 14.4109 55.4052 14.3549 55.4234 14.2939C55.445 14.2291 55.4585 14.162 55.4637 14.0939C55.4678 14.0619 55.484 14.0329 55.484 13.9999V6C55.484 5.86867 55.4579 5.73862 55.4073 5.61728C55.3566 5.49594 55.2823 5.38568 55.1886 5.29282C55.0949 5.19995 54.9837 5.1263 54.8613 5.07606C54.7389 5.02583 54.6077 4.99999 54.4752 5.00004C54.3427 4.99999 54.2115 5.02583 54.0891 5.07606C53.9667 5.1263 53.8555 5.19995 53.7618 5.29282C53.6681 5.38568 53.5938 5.49594 53.5431 5.61728C53.4925 5.73862 53.4664 5.86867 53.4664 6V10.982C47.7554 4.06195 39.2926 0 30.2639 0C13.5764 0 0 13.458 0 30C0 33.183 0.499355 36.3139 1.484 39.306C1.62219 39.729 2.0187 39.997 2.44334 39.997C2.54955 39.9965 2.65503 39.9796 2.75603 39.947C3.28565 39.775 3.57516 39.2109 3.40268 38.6861C2.48365 35.8939 2.01763 32.972 2.01763 30Z" fill="#DDE0E4"></path><path d="M26.8562 49.926C27.0734 50.0138 27.3146 50.0238 27.5384 49.9545C27.7623 49.8851 27.9548 49.7407 28.0829 49.546L43.2149 26.546C43.3219 26.3834 43.3788 26.1934 43.3786 25.9993C43.3784 25.8052 43.3211 25.6153 43.2138 25.453C42.9939 25.121 42.5965 24.946 42.204 25.014L31.5047 26.7809L34.2829 11.1739C34.3241 10.9438 34.2827 10.7067 34.1659 10.5037C34.049 10.3007 33.8642 10.1447 33.6433 10.0628C33.1904 9.89585 32.676 10.0719 32.4257 10.4848L17.2937 35.4848C17.1941 35.6486 17.1442 35.8372 17.1497 36.0284C17.1553 36.2195 17.2161 36.405 17.3251 36.5628C17.4335 36.7204 17.5851 36.844 17.7621 36.919C17.939 36.9939 18.1339 37.0171 18.3238 36.9859L28.9878 35.2249L26.2478 48.8039C26.1541 49.274 26.4084 49.7451 26.8562 49.926ZM20.1478 34.658L31.3485 16.1511L29.2714 27.8261C29.2431 27.9836 29.2533 28.1456 29.3013 28.2984C29.3492 28.4511 29.4334 28.5903 29.5468 28.7041C29.6602 28.818 29.7997 28.9031 29.9534 28.9522C30.1071 29.0013 30.2704 29.0129 30.4296 28.986L40.2704 27.361L29.2544 44.1041L31.2528 34.1961C31.285 34.0374 31.2778 33.8733 31.232 33.7179C31.1861 33.5626 31.1029 33.4206 30.9896 33.3041C30.8953 33.2079 30.7826 33.1314 30.658 33.0792C30.5334 33.027 30.3996 33.0001 30.2643 33.0001C30.2089 33.0001 30.1544 33.0041 30.0989 33.014L20.1478 34.658Z" fill="#DDE0E4"></path><path d="M58.9865 20.523C58.9447 20.3983 58.8784 20.2829 58.7916 20.1836C58.7047 20.0842 58.5989 20.0029 58.4803 19.9441C58.3616 19.8854 58.2324 19.8505 58.1002 19.8414C57.9679 19.8323 57.835 19.8491 57.7093 19.891C57.1817 20.0651 56.8953 20.6311 57.0707 21.155C58.026 23.997 58.5103 26.973 58.5103 30C58.5103 45.439 45.8397 57.9999 30.264 57.9999C21.5228 57.9999 13.3413 53.9199 8.01289 46.9999H14.1231C14.2556 46.9999 14.3868 46.9741 14.5092 46.9239C14.6316 46.8736 14.7429 46.8 14.8365 46.7071C14.9302 46.6143 15.0045 46.504 15.0552 46.3827C15.1059 46.2613 15.1319 46.1313 15.1319 45.9999C15.1319 45.8686 15.1059 45.7386 15.0552 45.6172C15.0045 45.4959 14.9302 45.3856 14.8365 45.2928C14.7429 45.1999 14.6316 45.1262 14.5092 45.076C14.3868 45.0258 14.2556 44.9999 14.1231 45H6.05283C6.02256 45 5.99537 45.015 5.96605 45.018C5.89749 45.0231 5.83188 45.0381 5.76425 45.058C5.70019 45.0768 5.63805 45.1016 5.57865 45.1319C5.55241 45.1469 5.52214 45.1489 5.49495 45.167C5.4667 45.185 5.45157 45.214 5.42639 45.2349C5.37283 45.2772 5.32411 45.3251 5.2811 45.3779C5.24078 45.4279 5.20544 45.4779 5.17624 45.5329C5.1462 45.5883 5.12218 45.6466 5.1046 45.707C5.08319 45.7712 5.06931 45.8376 5.06322 45.905C5.06014 45.9381 5.04407 45.9661 5.04407 46.0001V54C5.04407 54.5519 5.49495 54.9999 6.05283 54.9999C6.6107 54.9999 7.06158 54.5519 7.06158 54V49.016C12.7734 55.938 21.2362 60 30.264 60C46.9515 60 60.5279 46.5419 60.5279 30C60.5279 26.758 60.0083 23.569 58.9865 20.523Z" fill="#DDE0E4"></path></svg>